<mxfile host="app.diagrams.net" modified="2021-01-07T01:09:44.424Z" agent="5.0 (Windows NT 6.3; Win64; x64) AppleWebKit/537.36 (KHTML, like Gecko) Chrome/86.0.4240.193 Safari/537.36" etag="GMJezYKYDxcFuVJQQCjy" version="14.1.8" type="github">
  <diagram id="R2lEEEUBdFMjLlhIrx00" name="Page-1">
    <mxGraphModel dx="984" dy="1484" grid="0" gridSize="10" guides="1" tooltips="1" connect="1" arrows="1" fold="1" page="0" pageScale="1" pageWidth="850" pageHeight="1100" math="0" shadow="0" extFonts="Permanent Marker^https://fonts.googleapis.com/css?family=Permanent+Marker">
      <root>
        <mxCell id="0" />
        <mxCell id="1" parent="0" />
        <mxCell id="zC6uFSW1vvL2UDsvDJ0q-17" value="执法依据" style="whiteSpace=wrap;html=1;align=center;" vertex="1" parent="1">
          <mxGeometry x="239" y="-637" width="100" height="40" as="geometry" />
        </mxCell>
        <mxCell id="zC6uFSW1vvL2UDsvDJ0q-19" value="" style="edgeStyle=entityRelationEdgeStyle;fontSize=12;html=1;endArrow=ERmandOne;startArrow=ERmandOne;" edge="1" parent="1" source="zC6uFSW1vvL2UDsvDJ0q-170" target="zC6uFSW1vvL2UDsvDJ0q-154">
          <mxGeometry width="100" height="100" relative="1" as="geometry">
            <mxPoint x="1522" y="1037" as="sourcePoint" />
            <mxPoint x="1622" y="937" as="targetPoint" />
          </mxGeometry>
        </mxCell>
        <mxCell id="zC6uFSW1vvL2UDsvDJ0q-20" value="巡查记录基本信息" style="whiteSpace=wrap;html=1;align=center;fontFamily=仿宋;" vertex="1" parent="1">
          <mxGeometry x="290" y="424" width="100" height="40" as="geometry" />
        </mxCell>
        <mxCell id="zC6uFSW1vvL2UDsvDJ0q-21" value="巡查事项" style="whiteSpace=wrap;html=1;align=center;fontFamily=仿宋;" vertex="1" parent="1">
          <mxGeometry x="590" y="424" width="100" height="40" as="geometry" />
        </mxCell>
        <mxCell id="zC6uFSW1vvL2UDsvDJ0q-22" value="巡查报告" style="whiteSpace=wrap;html=1;align=center;fontFamily=仿宋;" vertex="1" parent="1">
          <mxGeometry x="290" y="614" width="100" height="40" as="geometry" />
        </mxCell>
        <mxCell id="zC6uFSW1vvL2UDsvDJ0q-23" value="巡查公文" style="whiteSpace=wrap;html=1;align=center;fontFamily=仿宋;" vertex="1" parent="1">
          <mxGeometry x="290" y="240" width="100" height="40" as="geometry" />
        </mxCell>
        <mxCell id="zC6uFSW1vvL2UDsvDJ0q-24" value="巡查照片" style="whiteSpace=wrap;html=1;align=center;fontFamily=仿宋;" vertex="1" parent="1">
          <mxGeometry x="590" y="254" width="100" height="40" as="geometry" />
        </mxCell>
        <mxCell id="zC6uFSW1vvL2UDsvDJ0q-25" value="巡查附件" style="whiteSpace=wrap;html=1;align=center;fontFamily=仿宋;" vertex="1" parent="1">
          <mxGeometry x="910" y="424" width="100" height="40" as="geometry" />
        </mxCell>
        <mxCell id="zC6uFSW1vvL2UDsvDJ0q-26" value="巡查路线" style="whiteSpace=wrap;html=1;align=center;fontFamily=仿宋;" vertex="1" parent="1">
          <mxGeometry x="520" y="614" width="100" height="40" as="geometry" />
        </mxCell>
        <mxCell id="zC6uFSW1vvL2UDsvDJ0q-27" value="巡查处置记录" style="whiteSpace=wrap;html=1;align=center;fontFamily=仿宋;" vertex="1" parent="1">
          <mxGeometry x="700" y="614" width="100" height="40" as="geometry" />
        </mxCell>
        <mxCell id="zC6uFSW1vvL2UDsvDJ0q-28" value="巡查处置附件" style="whiteSpace=wrap;html=1;align=center;fontFamily=仿宋;" vertex="1" parent="1">
          <mxGeometry x="605" y="774" width="100" height="40" as="geometry" />
        </mxCell>
        <mxCell id="zC6uFSW1vvL2UDsvDJ0q-29" value="巡查处置照片" style="whiteSpace=wrap;html=1;align=center;fontFamily=仿宋;" vertex="1" parent="1">
          <mxGeometry x="805" y="774" width="100" height="40" as="geometry" />
        </mxCell>
        <mxCell id="zC6uFSW1vvL2UDsvDJ0q-30" value="发现" style="shape=rhombus;perimeter=rhombusPerimeter;whiteSpace=wrap;html=1;align=center;fontFamily=仿宋;" vertex="1" parent="1">
          <mxGeometry x="430" y="414" width="120" height="60" as="geometry" />
        </mxCell>
        <mxCell id="zC6uFSW1vvL2UDsvDJ0q-31" value="" style="endArrow=none;html=1;rounded=0;entryX=0;entryY=0.5;entryDx=0;entryDy=0;fontFamily=仿宋;" edge="1" parent="1" target="zC6uFSW1vvL2UDsvDJ0q-30">
          <mxGeometry relative="1" as="geometry">
            <mxPoint x="390" y="444" as="sourcePoint" />
            <mxPoint x="460" y="444" as="targetPoint" />
          </mxGeometry>
        </mxCell>
        <mxCell id="zC6uFSW1vvL2UDsvDJ0q-32" value="1" style="resizable=0;html=1;align=right;verticalAlign=bottom;fontFamily=仿宋;" connectable="0" vertex="1" parent="zC6uFSW1vvL2UDsvDJ0q-31">
          <mxGeometry x="1" relative="1" as="geometry" />
        </mxCell>
        <mxCell id="zC6uFSW1vvL2UDsvDJ0q-33" value="" style="endArrow=none;html=1;rounded=0;exitX=1;exitY=0.5;exitDx=0;exitDy=0;entryX=0;entryY=0.5;entryDx=0;entryDy=0;fontFamily=仿宋;" edge="1" parent="1" source="zC6uFSW1vvL2UDsvDJ0q-30" target="zC6uFSW1vvL2UDsvDJ0q-21">
          <mxGeometry relative="1" as="geometry">
            <mxPoint x="520" y="524" as="sourcePoint" />
            <mxPoint x="680" y="524" as="targetPoint" />
          </mxGeometry>
        </mxCell>
        <mxCell id="zC6uFSW1vvL2UDsvDJ0q-34" value="N" style="resizable=0;html=1;align=right;verticalAlign=bottom;fontFamily=仿宋;" connectable="0" vertex="1" parent="zC6uFSW1vvL2UDsvDJ0q-33">
          <mxGeometry x="1" relative="1" as="geometry" />
        </mxCell>
        <mxCell id="zC6uFSW1vvL2UDsvDJ0q-35" value="撰写" style="shape=rhombus;perimeter=rhombusPerimeter;whiteSpace=wrap;html=1;align=center;fontFamily=仿宋;" vertex="1" parent="1">
          <mxGeometry x="280" y="514" width="120" height="60" as="geometry" />
        </mxCell>
        <mxCell id="zC6uFSW1vvL2UDsvDJ0q-36" value="" style="endArrow=none;html=1;rounded=0;exitX=0.5;exitY=1;exitDx=0;exitDy=0;entryX=0.5;entryY=0;entryDx=0;entryDy=0;fontFamily=仿宋;" edge="1" parent="1" source="zC6uFSW1vvL2UDsvDJ0q-20" target="zC6uFSW1vvL2UDsvDJ0q-35">
          <mxGeometry relative="1" as="geometry">
            <mxPoint x="470" y="534" as="sourcePoint" />
            <mxPoint x="630" y="534" as="targetPoint" />
          </mxGeometry>
        </mxCell>
        <mxCell id="zC6uFSW1vvL2UDsvDJ0q-37" value="1" style="resizable=0;html=1;align=right;verticalAlign=bottom;fontFamily=仿宋;" connectable="0" vertex="1" parent="zC6uFSW1vvL2UDsvDJ0q-36">
          <mxGeometry x="1" relative="1" as="geometry" />
        </mxCell>
        <mxCell id="zC6uFSW1vvL2UDsvDJ0q-38" value="" style="endArrow=none;html=1;rounded=0;exitX=0.5;exitY=1;exitDx=0;exitDy=0;entryX=0.5;entryY=0;entryDx=0;entryDy=0;fontFamily=仿宋;" edge="1" parent="1" source="zC6uFSW1vvL2UDsvDJ0q-35" target="zC6uFSW1vvL2UDsvDJ0q-22">
          <mxGeometry relative="1" as="geometry">
            <mxPoint x="490" y="564" as="sourcePoint" />
            <mxPoint x="650" y="564" as="targetPoint" />
          </mxGeometry>
        </mxCell>
        <mxCell id="zC6uFSW1vvL2UDsvDJ0q-39" value="N" style="resizable=0;html=1;align=right;verticalAlign=bottom;fontFamily=仿宋;" connectable="0" vertex="1" parent="zC6uFSW1vvL2UDsvDJ0q-38">
          <mxGeometry x="1" relative="1" as="geometry" />
        </mxCell>
        <mxCell id="zC6uFSW1vvL2UDsvDJ0q-40" value="撰写" style="shape=rhombus;perimeter=rhombusPerimeter;whiteSpace=wrap;html=1;align=center;fontFamily=仿宋;" vertex="1" parent="1">
          <mxGeometry x="280" y="324" width="120" height="60" as="geometry" />
        </mxCell>
        <mxCell id="zC6uFSW1vvL2UDsvDJ0q-41" value="" style="endArrow=none;html=1;rounded=0;exitX=0.5;exitY=0;exitDx=0;exitDy=0;entryX=0.5;entryY=1;entryDx=0;entryDy=0;fontFamily=仿宋;" edge="1" parent="1" source="zC6uFSW1vvL2UDsvDJ0q-20" target="zC6uFSW1vvL2UDsvDJ0q-40">
          <mxGeometry relative="1" as="geometry">
            <mxPoint x="390" y="384" as="sourcePoint" />
            <mxPoint x="550" y="384" as="targetPoint" />
          </mxGeometry>
        </mxCell>
        <mxCell id="zC6uFSW1vvL2UDsvDJ0q-42" value="1" style="resizable=0;html=1;align=right;verticalAlign=bottom;fontFamily=仿宋;" connectable="0" vertex="1" parent="zC6uFSW1vvL2UDsvDJ0q-41">
          <mxGeometry x="1" relative="1" as="geometry">
            <mxPoint y="40" as="offset" />
          </mxGeometry>
        </mxCell>
        <mxCell id="zC6uFSW1vvL2UDsvDJ0q-43" value="" style="endArrow=none;html=1;rounded=0;exitX=0.5;exitY=0;exitDx=0;exitDy=0;entryX=0.5;entryY=1;entryDx=0;entryDy=0;fontFamily=仿宋;" edge="1" parent="1" source="zC6uFSW1vvL2UDsvDJ0q-40" target="zC6uFSW1vvL2UDsvDJ0q-23">
          <mxGeometry relative="1" as="geometry">
            <mxPoint x="470" y="294" as="sourcePoint" />
            <mxPoint x="630" y="294" as="targetPoint" />
          </mxGeometry>
        </mxCell>
        <mxCell id="zC6uFSW1vvL2UDsvDJ0q-44" value="N" style="resizable=0;html=1;align=right;verticalAlign=bottom;fontFamily=仿宋;" connectable="0" vertex="1" parent="zC6uFSW1vvL2UDsvDJ0q-43">
          <mxGeometry x="1" relative="1" as="geometry">
            <mxPoint y="30" as="offset" />
          </mxGeometry>
        </mxCell>
        <mxCell id="zC6uFSW1vvL2UDsvDJ0q-45" value="拍摄" style="shape=rhombus;perimeter=rhombusPerimeter;whiteSpace=wrap;html=1;align=center;fontFamily=仿宋;" vertex="1" parent="1">
          <mxGeometry x="580" y="324" width="120" height="60" as="geometry" />
        </mxCell>
        <mxCell id="zC6uFSW1vvL2UDsvDJ0q-46" value="" style="endArrow=none;html=1;rounded=0;exitX=0.5;exitY=0;exitDx=0;exitDy=0;entryX=0.5;entryY=1;entryDx=0;entryDy=0;fontFamily=仿宋;" edge="1" parent="1" source="zC6uFSW1vvL2UDsvDJ0q-21" target="zC6uFSW1vvL2UDsvDJ0q-45">
          <mxGeometry relative="1" as="geometry">
            <mxPoint x="700" y="404" as="sourcePoint" />
            <mxPoint x="860" y="404" as="targetPoint" />
          </mxGeometry>
        </mxCell>
        <mxCell id="zC6uFSW1vvL2UDsvDJ0q-47" value="1" style="resizable=0;html=1;align=right;verticalAlign=bottom;fontFamily=仿宋;" connectable="0" vertex="1" parent="zC6uFSW1vvL2UDsvDJ0q-46">
          <mxGeometry x="1" relative="1" as="geometry">
            <mxPoint y="30" as="offset" />
          </mxGeometry>
        </mxCell>
        <mxCell id="zC6uFSW1vvL2UDsvDJ0q-48" value="" style="endArrow=none;html=1;rounded=0;exitX=0.5;exitY=0;exitDx=0;exitDy=0;entryX=0.5;entryY=1;entryDx=0;entryDy=0;fontFamily=仿宋;" edge="1" parent="1" source="zC6uFSW1vvL2UDsvDJ0q-45" target="zC6uFSW1vvL2UDsvDJ0q-24">
          <mxGeometry relative="1" as="geometry">
            <mxPoint x="720" y="314" as="sourcePoint" />
            <mxPoint x="880" y="314" as="targetPoint" />
          </mxGeometry>
        </mxCell>
        <mxCell id="zC6uFSW1vvL2UDsvDJ0q-49" value="N" style="resizable=0;html=1;align=right;verticalAlign=bottom;fontFamily=仿宋;" connectable="0" vertex="1" parent="zC6uFSW1vvL2UDsvDJ0q-48">
          <mxGeometry x="1" relative="1" as="geometry">
            <mxPoint y="22" as="offset" />
          </mxGeometry>
        </mxCell>
        <mxCell id="zC6uFSW1vvL2UDsvDJ0q-50" value="上传" style="shape=rhombus;perimeter=rhombusPerimeter;whiteSpace=wrap;html=1;align=center;fontFamily=仿宋;" vertex="1" parent="1">
          <mxGeometry x="740" y="414" width="120" height="60" as="geometry" />
        </mxCell>
        <mxCell id="zC6uFSW1vvL2UDsvDJ0q-51" value="" style="endArrow=none;html=1;rounded=0;exitX=1;exitY=0.5;exitDx=0;exitDy=0;entryX=0;entryY=0.5;entryDx=0;entryDy=0;fontFamily=仿宋;" edge="1" parent="1" source="zC6uFSW1vvL2UDsvDJ0q-21" target="zC6uFSW1vvL2UDsvDJ0q-50">
          <mxGeometry relative="1" as="geometry">
            <mxPoint x="700" y="504" as="sourcePoint" />
            <mxPoint x="860" y="504" as="targetPoint" />
          </mxGeometry>
        </mxCell>
        <mxCell id="zC6uFSW1vvL2UDsvDJ0q-52" value="1" style="resizable=0;html=1;align=right;verticalAlign=bottom;fontFamily=仿宋;" connectable="0" vertex="1" parent="zC6uFSW1vvL2UDsvDJ0q-51">
          <mxGeometry x="1" relative="1" as="geometry" />
        </mxCell>
        <mxCell id="zC6uFSW1vvL2UDsvDJ0q-53" value="" style="endArrow=none;html=1;rounded=0;exitX=1;exitY=0.5;exitDx=0;exitDy=0;entryX=0;entryY=0.5;entryDx=0;entryDy=0;fontFamily=仿宋;" edge="1" parent="1" source="zC6uFSW1vvL2UDsvDJ0q-50" target="zC6uFSW1vvL2UDsvDJ0q-25">
          <mxGeometry relative="1" as="geometry">
            <mxPoint x="860" y="443.5" as="sourcePoint" />
            <mxPoint x="1020" y="443.5" as="targetPoint" />
          </mxGeometry>
        </mxCell>
        <mxCell id="zC6uFSW1vvL2UDsvDJ0q-54" value="N" style="resizable=0;html=1;align=right;verticalAlign=bottom;fontFamily=仿宋;" connectable="0" vertex="1" parent="zC6uFSW1vvL2UDsvDJ0q-53">
          <mxGeometry x="1" relative="1" as="geometry" />
        </mxCell>
        <mxCell id="zC6uFSW1vvL2UDsvDJ0q-55" value="行走" style="shape=rhombus;perimeter=rhombusPerimeter;whiteSpace=wrap;html=1;align=center;fontFamily=仿宋;" vertex="1" parent="1">
          <mxGeometry x="510" y="514" width="120" height="60" as="geometry" />
        </mxCell>
        <mxCell id="zC6uFSW1vvL2UDsvDJ0q-56" value="" style="endArrow=none;html=1;rounded=0;exitX=0.5;exitY=1;exitDx=0;exitDy=0;fontFamily=仿宋;" edge="1" parent="1" source="zC6uFSW1vvL2UDsvDJ0q-21" target="zC6uFSW1vvL2UDsvDJ0q-55">
          <mxGeometry relative="1" as="geometry">
            <mxPoint x="760" y="584" as="sourcePoint" />
            <mxPoint x="920" y="584" as="targetPoint" />
          </mxGeometry>
        </mxCell>
        <mxCell id="zC6uFSW1vvL2UDsvDJ0q-57" value="1" style="resizable=0;html=1;align=right;verticalAlign=bottom;fontFamily=仿宋;" connectable="0" vertex="1" parent="zC6uFSW1vvL2UDsvDJ0q-56">
          <mxGeometry x="1" relative="1" as="geometry" />
        </mxCell>
        <mxCell id="zC6uFSW1vvL2UDsvDJ0q-58" value="" style="endArrow=none;html=1;rounded=0;exitX=0.5;exitY=1;exitDx=0;exitDy=0;entryX=0.5;entryY=0;entryDx=0;entryDy=0;fontFamily=仿宋;" edge="1" parent="1" source="zC6uFSW1vvL2UDsvDJ0q-55" target="zC6uFSW1vvL2UDsvDJ0q-26">
          <mxGeometry relative="1" as="geometry">
            <mxPoint x="590" y="584" as="sourcePoint" />
            <mxPoint x="750" y="584" as="targetPoint" />
          </mxGeometry>
        </mxCell>
        <mxCell id="zC6uFSW1vvL2UDsvDJ0q-59" value="N" style="resizable=0;html=1;align=right;verticalAlign=bottom;fontFamily=仿宋;" connectable="0" vertex="1" parent="zC6uFSW1vvL2UDsvDJ0q-58">
          <mxGeometry x="1" relative="1" as="geometry" />
        </mxCell>
        <mxCell id="zC6uFSW1vvL2UDsvDJ0q-60" value="处理" style="shape=rhombus;perimeter=rhombusPerimeter;whiteSpace=wrap;html=1;align=center;fontFamily=仿宋;" vertex="1" parent="1">
          <mxGeometry x="690" y="514" width="120" height="60" as="geometry" />
        </mxCell>
        <mxCell id="zC6uFSW1vvL2UDsvDJ0q-61" value="" style="endArrow=none;html=1;rounded=0;entryX=0;entryY=0;entryDx=0;entryDy=0;fontFamily=仿宋;" edge="1" parent="1" target="zC6uFSW1vvL2UDsvDJ0q-60">
          <mxGeometry relative="1" as="geometry">
            <mxPoint x="640" y="464" as="sourcePoint" />
            <mxPoint x="820" y="494" as="targetPoint" />
          </mxGeometry>
        </mxCell>
        <mxCell id="zC6uFSW1vvL2UDsvDJ0q-62" value="1" style="resizable=0;html=1;align=right;verticalAlign=bottom;fontFamily=仿宋;" connectable="0" vertex="1" parent="zC6uFSW1vvL2UDsvDJ0q-61">
          <mxGeometry x="1" relative="1" as="geometry" />
        </mxCell>
        <mxCell id="zC6uFSW1vvL2UDsvDJ0q-63" value="" style="endArrow=none;html=1;rounded=0;exitX=0.5;exitY=1;exitDx=0;exitDy=0;entryX=0.5;entryY=0;entryDx=0;entryDy=0;fontFamily=仿宋;" edge="1" parent="1" source="zC6uFSW1vvL2UDsvDJ0q-60" target="zC6uFSW1vvL2UDsvDJ0q-27">
          <mxGeometry relative="1" as="geometry">
            <mxPoint x="840" y="604" as="sourcePoint" />
            <mxPoint x="750" y="604" as="targetPoint" />
          </mxGeometry>
        </mxCell>
        <mxCell id="zC6uFSW1vvL2UDsvDJ0q-64" value="N" style="resizable=0;html=1;align=right;verticalAlign=bottom;fontFamily=仿宋;" connectable="0" vertex="1" parent="zC6uFSW1vvL2UDsvDJ0q-63">
          <mxGeometry x="1" relative="1" as="geometry" />
        </mxCell>
        <mxCell id="zC6uFSW1vvL2UDsvDJ0q-65" value="上传" style="shape=rhombus;perimeter=rhombusPerimeter;whiteSpace=wrap;html=1;align=center;fontFamily=仿宋;" vertex="1" parent="1">
          <mxGeometry x="610" y="674" width="90" height="60" as="geometry" />
        </mxCell>
        <mxCell id="zC6uFSW1vvL2UDsvDJ0q-66" value="" style="endArrow=none;html=1;rounded=0;exitX=0.5;exitY=1;exitDx=0;exitDy=0;fontFamily=仿宋;" edge="1" parent="1" source="zC6uFSW1vvL2UDsvDJ0q-27" target="zC6uFSW1vvL2UDsvDJ0q-65">
          <mxGeometry relative="1" as="geometry">
            <mxPoint x="760" y="674" as="sourcePoint" />
            <mxPoint x="920" y="674" as="targetPoint" />
          </mxGeometry>
        </mxCell>
        <mxCell id="zC6uFSW1vvL2UDsvDJ0q-67" value="1" style="resizable=0;html=1;align=right;verticalAlign=bottom;fontFamily=仿宋;" connectable="0" vertex="1" parent="zC6uFSW1vvL2UDsvDJ0q-66">
          <mxGeometry x="1" relative="1" as="geometry" />
        </mxCell>
        <mxCell id="zC6uFSW1vvL2UDsvDJ0q-68" value="" style="endArrow=none;html=1;rounded=0;exitX=0.5;exitY=1;exitDx=0;exitDy=0;entryX=0.5;entryY=0;entryDx=0;entryDy=0;fontFamily=仿宋;" edge="1" parent="1" source="zC6uFSW1vvL2UDsvDJ0q-65" target="zC6uFSW1vvL2UDsvDJ0q-28">
          <mxGeometry relative="1" as="geometry">
            <mxPoint x="480" y="884" as="sourcePoint" />
            <mxPoint x="640" y="884" as="targetPoint" />
          </mxGeometry>
        </mxCell>
        <mxCell id="zC6uFSW1vvL2UDsvDJ0q-69" value="N" style="resizable=0;html=1;align=right;verticalAlign=bottom;fontFamily=仿宋;" connectable="0" vertex="1" parent="zC6uFSW1vvL2UDsvDJ0q-68">
          <mxGeometry x="1" relative="1" as="geometry" />
        </mxCell>
        <mxCell id="zC6uFSW1vvL2UDsvDJ0q-70" value="拍摄" style="shape=rhombus;perimeter=rhombusPerimeter;whiteSpace=wrap;html=1;align=center;fontFamily=仿宋;" vertex="1" parent="1">
          <mxGeometry x="810" y="674" width="90" height="60" as="geometry" />
        </mxCell>
        <mxCell id="zC6uFSW1vvL2UDsvDJ0q-71" value="" style="endArrow=none;html=1;rounded=0;entryX=0;entryY=0;entryDx=0;entryDy=0;fontFamily=仿宋;" edge="1" parent="1" target="zC6uFSW1vvL2UDsvDJ0q-70">
          <mxGeometry relative="1" as="geometry">
            <mxPoint x="750" y="654" as="sourcePoint" />
            <mxPoint x="950" y="864" as="targetPoint" />
          </mxGeometry>
        </mxCell>
        <mxCell id="zC6uFSW1vvL2UDsvDJ0q-72" value="1" style="resizable=0;html=1;align=right;verticalAlign=bottom;fontFamily=仿宋;" connectable="0" vertex="1" parent="zC6uFSW1vvL2UDsvDJ0q-71">
          <mxGeometry x="1" relative="1" as="geometry" />
        </mxCell>
        <mxCell id="zC6uFSW1vvL2UDsvDJ0q-73" value="" style="endArrow=none;html=1;rounded=0;exitX=0.5;exitY=1;exitDx=0;exitDy=0;entryX=0.5;entryY=0;entryDx=0;entryDy=0;fontFamily=仿宋;" edge="1" parent="1" source="zC6uFSW1vvL2UDsvDJ0q-70" target="zC6uFSW1vvL2UDsvDJ0q-29">
          <mxGeometry relative="1" as="geometry">
            <mxPoint x="980" y="844" as="sourcePoint" />
            <mxPoint x="1140" y="844" as="targetPoint" />
          </mxGeometry>
        </mxCell>
        <mxCell id="zC6uFSW1vvL2UDsvDJ0q-74" value="N" style="resizable=0;html=1;align=right;verticalAlign=bottom;fontFamily=仿宋;" connectable="0" vertex="1" parent="zC6uFSW1vvL2UDsvDJ0q-73">
          <mxGeometry x="1" relative="1" as="geometry" />
        </mxCell>
        <mxCell id="zC6uFSW1vvL2UDsvDJ0q-75" value="执法活动" style="whiteSpace=wrap;html=1;align=center;fontFamily=仿宋;" vertex="1" parent="1">
          <mxGeometry x="1531" y="508" width="100" height="40" as="geometry" />
        </mxCell>
        <mxCell id="zC6uFSW1vvL2UDsvDJ0q-76" value="违法事项" style="whiteSpace=wrap;html=1;align=center;fontFamily=仿宋;" vertex="1" parent="1">
          <mxGeometry x="1667" y="414" width="100" height="40" as="geometry" />
        </mxCell>
        <mxCell id="zC6uFSW1vvL2UDsvDJ0q-77" value="整改记录" style="whiteSpace=wrap;html=1;align=center;fontFamily=仿宋;" vertex="1" parent="1">
          <mxGeometry x="1667" y="606" width="100" height="40" as="geometry" />
        </mxCell>
        <mxCell id="zC6uFSW1vvL2UDsvDJ0q-78" value="公文" style="whiteSpace=wrap;html=1;align=center;fontFamily=仿宋;" vertex="1" parent="1">
          <mxGeometry x="1046" y="519" width="100" height="40" as="geometry" />
        </mxCell>
        <mxCell id="zC6uFSW1vvL2UDsvDJ0q-79" value="报告" style="whiteSpace=wrap;html=1;align=center;fontFamily=仿宋;" vertex="1" parent="1">
          <mxGeometry x="738" y="253.91" width="100" height="40" as="geometry" />
        </mxCell>
        <mxCell id="zC6uFSW1vvL2UDsvDJ0q-80" value="照片" style="whiteSpace=wrap;html=1;align=center;fontFamily=仿宋;" vertex="1" parent="1">
          <mxGeometry x="1046" y="673" width="100" height="40" as="geometry" />
        </mxCell>
        <mxCell id="zC6uFSW1vvL2UDsvDJ0q-81" value="违法事项附件" style="whiteSpace=wrap;html=1;align=center;fontFamily=仿宋;" vertex="1" parent="1">
          <mxGeometry x="1943" y="414" width="100" height="40" as="geometry" />
        </mxCell>
        <mxCell id="zC6uFSW1vvL2UDsvDJ0q-82" value="整改记录附件" style="whiteSpace=wrap;html=1;align=center;fontFamily=仿宋;" vertex="1" parent="1">
          <mxGeometry x="1943" y="607" width="100" height="40" as="geometry" />
        </mxCell>
        <mxCell id="zC6uFSW1vvL2UDsvDJ0q-83" value="水库" style="whiteSpace=wrap;html=1;align=center;fontFamily=仿宋;" vertex="1" parent="1">
          <mxGeometry x="1531" y="325" width="100" height="40" as="geometry" />
        </mxCell>
        <mxCell id="zC6uFSW1vvL2UDsvDJ0q-84" value="行政区划" style="whiteSpace=wrap;html=1;align=center;fontFamily=仿宋;" vertex="1" parent="1">
          <mxGeometry x="1242" y="325" width="100" height="40" as="geometry" />
        </mxCell>
        <mxCell id="zC6uFSW1vvL2UDsvDJ0q-85" value="违法事项来源" style="whiteSpace=wrap;html=1;align=center;fontFamily=仿宋;" vertex="1" parent="1">
          <mxGeometry x="1667" y="231" width="100" height="40" as="geometry" />
        </mxCell>
        <mxCell id="zC6uFSW1vvL2UDsvDJ0q-86" value="所属" style="shape=rhombus;perimeter=rhombusPerimeter;whiteSpace=wrap;html=1;align=center;fontFamily=仿宋;" vertex="1" parent="1">
          <mxGeometry x="1534" y="404" width="94" height="60" as="geometry" />
        </mxCell>
        <mxCell id="zC6uFSW1vvL2UDsvDJ0q-87" value="" style="endArrow=none;html=1;rounded=0;exitX=0.5;exitY=1;exitDx=0;exitDy=0;entryX=0.5;entryY=0;entryDx=0;entryDy=0;fontFamily=仿宋;" edge="1" parent="1" source="zC6uFSW1vvL2UDsvDJ0q-83" target="zC6uFSW1vvL2UDsvDJ0q-86">
          <mxGeometry relative="1" as="geometry">
            <mxPoint x="1671" y="409" as="sourcePoint" />
            <mxPoint x="1831" y="409" as="targetPoint" />
          </mxGeometry>
        </mxCell>
        <mxCell id="zC6uFSW1vvL2UDsvDJ0q-88" value="1" style="resizable=0;html=1;align=right;verticalAlign=bottom;fontFamily=仿宋;" connectable="0" vertex="1" parent="zC6uFSW1vvL2UDsvDJ0q-87">
          <mxGeometry x="1" relative="1" as="geometry" />
        </mxCell>
        <mxCell id="zC6uFSW1vvL2UDsvDJ0q-89" value="" style="endArrow=none;html=1;rounded=0;exitX=0.5;exitY=1;exitDx=0;exitDy=0;fontFamily=仿宋;" edge="1" parent="1" source="zC6uFSW1vvL2UDsvDJ0q-86" target="zC6uFSW1vvL2UDsvDJ0q-75">
          <mxGeometry relative="1" as="geometry">
            <mxPoint x="1710" y="469" as="sourcePoint" />
            <mxPoint x="1870" y="469" as="targetPoint" />
          </mxGeometry>
        </mxCell>
        <mxCell id="zC6uFSW1vvL2UDsvDJ0q-90" value="N" style="resizable=0;html=1;align=right;verticalAlign=bottom;fontFamily=仿宋;" connectable="0" vertex="1" parent="zC6uFSW1vvL2UDsvDJ0q-89">
          <mxGeometry x="1" relative="1" as="geometry" />
        </mxCell>
        <mxCell id="zC6uFSW1vvL2UDsvDJ0q-91" value="来源" style="shape=rhombus;perimeter=rhombusPerimeter;whiteSpace=wrap;html=1;align=center;fontFamily=仿宋;" vertex="1" parent="1">
          <mxGeometry x="1670" y="310" width="94" height="60" as="geometry" />
        </mxCell>
        <mxCell id="zC6uFSW1vvL2UDsvDJ0q-92" value="" style="endArrow=none;html=1;rounded=0;exitX=0.5;exitY=1;exitDx=0;exitDy=0;fontFamily=仿宋;" edge="1" parent="1" source="zC6uFSW1vvL2UDsvDJ0q-85" target="zC6uFSW1vvL2UDsvDJ0q-91">
          <mxGeometry relative="1" as="geometry">
            <mxPoint x="1785" y="329" as="sourcePoint" />
            <mxPoint x="1945" y="329" as="targetPoint" />
          </mxGeometry>
        </mxCell>
        <mxCell id="zC6uFSW1vvL2UDsvDJ0q-93" value="1" style="resizable=0;html=1;align=right;verticalAlign=bottom;fontFamily=仿宋;" connectable="0" vertex="1" parent="zC6uFSW1vvL2UDsvDJ0q-92">
          <mxGeometry x="1" relative="1" as="geometry" />
        </mxCell>
        <mxCell id="zC6uFSW1vvL2UDsvDJ0q-94" value="" style="endArrow=none;html=1;rounded=0;exitX=0.5;exitY=1;exitDx=0;exitDy=0;fontFamily=仿宋;" edge="1" parent="1" source="zC6uFSW1vvL2UDsvDJ0q-91" target="zC6uFSW1vvL2UDsvDJ0q-76">
          <mxGeometry relative="1" as="geometry">
            <mxPoint x="1799" y="369" as="sourcePoint" />
            <mxPoint x="1973" y="369" as="targetPoint" />
          </mxGeometry>
        </mxCell>
        <mxCell id="zC6uFSW1vvL2UDsvDJ0q-95" value="N" style="resizable=0;html=1;align=right;verticalAlign=bottom;fontFamily=仿宋;" connectable="0" vertex="1" parent="zC6uFSW1vvL2UDsvDJ0q-94">
          <mxGeometry x="1" relative="1" as="geometry" />
        </mxCell>
        <mxCell id="zC6uFSW1vvL2UDsvDJ0q-96" value="整改" style="shape=rhombus;perimeter=rhombusPerimeter;whiteSpace=wrap;html=1;align=center;fontFamily=仿宋;" vertex="1" parent="1">
          <mxGeometry x="1670" y="497" width="94" height="60" as="geometry" />
        </mxCell>
        <mxCell id="zC6uFSW1vvL2UDsvDJ0q-97" value="" style="endArrow=none;html=1;rounded=0;exitX=0.5;exitY=1;exitDx=0;exitDy=0;fontFamily=仿宋;" edge="1" parent="1" source="zC6uFSW1vvL2UDsvDJ0q-76" target="zC6uFSW1vvL2UDsvDJ0q-96">
          <mxGeometry relative="1" as="geometry">
            <mxPoint x="1751" y="489" as="sourcePoint" />
            <mxPoint x="1911" y="489" as="targetPoint" />
          </mxGeometry>
        </mxCell>
        <mxCell id="zC6uFSW1vvL2UDsvDJ0q-98" value="1" style="resizable=0;html=1;align=right;verticalAlign=bottom;fontFamily=仿宋;" connectable="0" vertex="1" parent="zC6uFSW1vvL2UDsvDJ0q-97">
          <mxGeometry x="1" relative="1" as="geometry" />
        </mxCell>
        <mxCell id="zC6uFSW1vvL2UDsvDJ0q-99" value="" style="endArrow=none;html=1;rounded=0;exitX=0.5;exitY=1;exitDx=0;exitDy=0;entryX=0.5;entryY=0;entryDx=0;entryDy=0;fontFamily=仿宋;" edge="1" parent="1" source="zC6uFSW1vvL2UDsvDJ0q-96" target="zC6uFSW1vvL2UDsvDJ0q-77">
          <mxGeometry relative="1" as="geometry">
            <mxPoint x="1786" y="527" as="sourcePoint" />
            <mxPoint x="1946" y="527" as="targetPoint" />
          </mxGeometry>
        </mxCell>
        <mxCell id="zC6uFSW1vvL2UDsvDJ0q-100" value="N" style="resizable=0;html=1;align=right;verticalAlign=bottom;fontFamily=仿宋;" connectable="0" vertex="1" parent="zC6uFSW1vvL2UDsvDJ0q-99">
          <mxGeometry x="1" relative="1" as="geometry" />
        </mxCell>
        <mxCell id="zC6uFSW1vvL2UDsvDJ0q-101" value="上传" style="shape=rhombus;perimeter=rhombusPerimeter;whiteSpace=wrap;html=1;align=center;fontFamily=仿宋;" vertex="1" parent="1">
          <mxGeometry x="1810" y="404" width="94" height="60" as="geometry" />
        </mxCell>
        <mxCell id="zC6uFSW1vvL2UDsvDJ0q-102" value="" style="endArrow=none;html=1;rounded=0;exitX=1;exitY=0.5;exitDx=0;exitDy=0;entryX=0.011;entryY=0.483;entryDx=0;entryDy=0;entryPerimeter=0;fontFamily=仿宋;" edge="1" parent="1" source="zC6uFSW1vvL2UDsvDJ0q-76" target="zC6uFSW1vvL2UDsvDJ0q-101">
          <mxGeometry relative="1" as="geometry">
            <mxPoint x="1791" y="503" as="sourcePoint" />
            <mxPoint x="1951" y="503" as="targetPoint" />
          </mxGeometry>
        </mxCell>
        <mxCell id="zC6uFSW1vvL2UDsvDJ0q-103" value="1" style="resizable=0;html=1;align=right;verticalAlign=bottom;fontFamily=仿宋;" connectable="0" vertex="1" parent="zC6uFSW1vvL2UDsvDJ0q-102">
          <mxGeometry x="1" relative="1" as="geometry" />
        </mxCell>
        <mxCell id="zC6uFSW1vvL2UDsvDJ0q-104" value="" style="endArrow=none;html=1;rounded=0;exitX=1;exitY=0.5;exitDx=0;exitDy=0;entryX=0;entryY=0.5;entryDx=0;entryDy=0;fontFamily=仿宋;" edge="1" parent="1" source="zC6uFSW1vvL2UDsvDJ0q-101" target="zC6uFSW1vvL2UDsvDJ0q-81">
          <mxGeometry relative="1" as="geometry">
            <mxPoint x="1869" y="538" as="sourcePoint" />
            <mxPoint x="2029" y="538" as="targetPoint" />
          </mxGeometry>
        </mxCell>
        <mxCell id="zC6uFSW1vvL2UDsvDJ0q-105" value="N" style="resizable=0;html=1;align=right;verticalAlign=bottom;fontFamily=仿宋;" connectable="0" vertex="1" parent="zC6uFSW1vvL2UDsvDJ0q-104">
          <mxGeometry x="1" relative="1" as="geometry" />
        </mxCell>
        <mxCell id="zC6uFSW1vvL2UDsvDJ0q-106" value="上传" style="shape=rhombus;perimeter=rhombusPerimeter;whiteSpace=wrap;html=1;align=center;fontFamily=仿宋;" vertex="1" parent="1">
          <mxGeometry x="1810" y="597" width="94" height="60" as="geometry" />
        </mxCell>
        <mxCell id="zC6uFSW1vvL2UDsvDJ0q-107" value="" style="endArrow=none;html=1;rounded=0;entryX=0;entryY=0.5;entryDx=0;entryDy=0;fontFamily=仿宋;" edge="1" parent="1" source="zC6uFSW1vvL2UDsvDJ0q-77" target="zC6uFSW1vvL2UDsvDJ0q-106">
          <mxGeometry relative="1" as="geometry">
            <mxPoint x="1767" y="626" as="sourcePoint" />
            <mxPoint x="1927" y="626" as="targetPoint" />
          </mxGeometry>
        </mxCell>
        <mxCell id="zC6uFSW1vvL2UDsvDJ0q-108" value="1" style="resizable=0;html=1;align=right;verticalAlign=bottom;fontFamily=仿宋;" connectable="0" vertex="1" parent="zC6uFSW1vvL2UDsvDJ0q-107">
          <mxGeometry x="1" relative="1" as="geometry" />
        </mxCell>
        <mxCell id="zC6uFSW1vvL2UDsvDJ0q-109" value="" style="endArrow=none;html=1;rounded=0;exitX=1;exitY=0.5;exitDx=0;exitDy=0;entryX=0;entryY=0.5;entryDx=0;entryDy=0;fontFamily=仿宋;" edge="1" parent="1" source="zC6uFSW1vvL2UDsvDJ0q-106" target="zC6uFSW1vvL2UDsvDJ0q-82">
          <mxGeometry relative="1" as="geometry">
            <mxPoint x="1927" y="655" as="sourcePoint" />
            <mxPoint x="2087" y="655" as="targetPoint" />
          </mxGeometry>
        </mxCell>
        <mxCell id="zC6uFSW1vvL2UDsvDJ0q-110" value="N" style="resizable=0;html=1;align=right;verticalAlign=bottom;fontFamily=仿宋;" connectable="0" vertex="1" parent="zC6uFSW1vvL2UDsvDJ0q-109">
          <mxGeometry x="1" relative="1" as="geometry" />
        </mxCell>
        <mxCell id="zC6uFSW1vvL2UDsvDJ0q-111" value="拥有" style="shape=rhombus;perimeter=rhombusPerimeter;whiteSpace=wrap;html=1;align=center;fontFamily=仿宋;" vertex="1" parent="1">
          <mxGeometry x="1392" y="315" width="94" height="60" as="geometry" />
        </mxCell>
        <mxCell id="zC6uFSW1vvL2UDsvDJ0q-112" value="" style="endArrow=none;html=1;rounded=0;exitX=1;exitY=0.5;exitDx=0;exitDy=0;fontFamily=仿宋;" edge="1" parent="1" source="zC6uFSW1vvL2UDsvDJ0q-84" target="zC6uFSW1vvL2UDsvDJ0q-111">
          <mxGeometry relative="1" as="geometry">
            <mxPoint x="1313" y="491" as="sourcePoint" />
            <mxPoint x="1473" y="491" as="targetPoint" />
          </mxGeometry>
        </mxCell>
        <mxCell id="zC6uFSW1vvL2UDsvDJ0q-113" value="1" style="resizable=0;html=1;align=right;verticalAlign=bottom;fontFamily=仿宋;" connectable="0" vertex="1" parent="zC6uFSW1vvL2UDsvDJ0q-112">
          <mxGeometry x="1" relative="1" as="geometry" />
        </mxCell>
        <mxCell id="zC6uFSW1vvL2UDsvDJ0q-114" value="" style="endArrow=none;html=1;rounded=0;exitX=1;exitY=0.5;exitDx=0;exitDy=0;entryX=0;entryY=0.5;entryDx=0;entryDy=0;fontFamily=仿宋;" edge="1" parent="1" source="zC6uFSW1vvL2UDsvDJ0q-111" target="zC6uFSW1vvL2UDsvDJ0q-83">
          <mxGeometry relative="1" as="geometry">
            <mxPoint x="1412" y="444" as="sourcePoint" />
            <mxPoint x="1572" y="444" as="targetPoint" />
          </mxGeometry>
        </mxCell>
        <mxCell id="zC6uFSW1vvL2UDsvDJ0q-115" value="N" style="resizable=0;html=1;align=right;verticalAlign=bottom;fontFamily=仿宋;" connectable="0" vertex="1" parent="zC6uFSW1vvL2UDsvDJ0q-114">
          <mxGeometry x="1" relative="1" as="geometry" />
        </mxCell>
        <mxCell id="zC6uFSW1vvL2UDsvDJ0q-116" value="记录" style="shape=rhombus;perimeter=rhombusPerimeter;whiteSpace=wrap;html=1;align=center;fontFamily=仿宋;" vertex="1" parent="1">
          <mxGeometry x="1534" y="597" width="94" height="60" as="geometry" />
        </mxCell>
        <mxCell id="zC6uFSW1vvL2UDsvDJ0q-117" value="" style="endArrow=none;html=1;rounded=0;exitX=0.5;exitY=1;exitDx=0;exitDy=0;entryX=0.5;entryY=0;entryDx=0;entryDy=0;fontFamily=仿宋;" edge="1" parent="1" source="zC6uFSW1vvL2UDsvDJ0q-75" target="zC6uFSW1vvL2UDsvDJ0q-116">
          <mxGeometry relative="1" as="geometry">
            <mxPoint x="1631" y="590" as="sourcePoint" />
            <mxPoint x="1791" y="590" as="targetPoint" />
          </mxGeometry>
        </mxCell>
        <mxCell id="zC6uFSW1vvL2UDsvDJ0q-118" value="1" style="resizable=0;html=1;align=right;verticalAlign=bottom;fontFamily=仿宋;" connectable="0" vertex="1" parent="zC6uFSW1vvL2UDsvDJ0q-117">
          <mxGeometry x="1" relative="1" as="geometry" />
        </mxCell>
        <mxCell id="zC6uFSW1vvL2UDsvDJ0q-119" value="" style="endArrow=none;html=1;rounded=0;exitX=1;exitY=0.5;exitDx=0;exitDy=0;entryX=0;entryY=0.5;entryDx=0;entryDy=0;fontFamily=仿宋;" edge="1" parent="1" source="zC6uFSW1vvL2UDsvDJ0q-116" target="zC6uFSW1vvL2UDsvDJ0q-77">
          <mxGeometry relative="1" as="geometry">
            <mxPoint x="1483" y="629" as="sourcePoint" />
            <mxPoint x="1643" y="629" as="targetPoint" />
          </mxGeometry>
        </mxCell>
        <mxCell id="zC6uFSW1vvL2UDsvDJ0q-120" value="N" style="resizable=0;html=1;align=right;verticalAlign=bottom;fontFamily=仿宋;" connectable="0" vertex="1" parent="zC6uFSW1vvL2UDsvDJ0q-119">
          <mxGeometry x="1" relative="1" as="geometry" />
        </mxCell>
        <mxCell id="zC6uFSW1vvL2UDsvDJ0q-121" value="送达回证" style="whiteSpace=wrap;html=1;align=center;fontFamily=仿宋;fontSize=14;" vertex="1" parent="1">
          <mxGeometry x="885" y="1291" width="100" height="40" as="geometry" />
        </mxCell>
        <mxCell id="zC6uFSW1vvL2UDsvDJ0q-122" value="责令停止水事违法行为通知书" style="whiteSpace=wrap;html=1;align=center;fontFamily=仿宋;fontSize=14;" vertex="1" parent="1">
          <mxGeometry x="1303" y="1486" width="100" height="40" as="geometry" />
        </mxCell>
        <mxCell id="zC6uFSW1vvL2UDsvDJ0q-123" value="案件举报记录" style="whiteSpace=wrap;html=1;align=center;fontFamily=仿宋;fontSize=14;" vertex="1" parent="1">
          <mxGeometry x="732" y="1291" width="100" height="40" as="geometry" />
        </mxCell>
        <mxCell id="zC6uFSW1vvL2UDsvDJ0q-124" value="案件举报情况" style="whiteSpace=wrap;html=1;align=center;fontFamily=仿宋;fontSize=14;" vertex="1" parent="1">
          <mxGeometry x="733" y="1346" width="100" height="40" as="geometry" />
        </mxCell>
        <mxCell id="zC6uFSW1vvL2UDsvDJ0q-125" value="" style="edgeStyle=entityRelationEdgeStyle;fontSize=14;html=1;endArrow=ERoneToMany;exitX=1;exitY=0.475;exitDx=0;exitDy=0;exitPerimeter=0;" edge="1" parent="1" source="zC6uFSW1vvL2UDsvDJ0q-123" target="zC6uFSW1vvL2UDsvDJ0q-124">
          <mxGeometry width="100" height="100" relative="1" as="geometry">
            <mxPoint x="833" y="1460" as="sourcePoint" />
            <mxPoint x="933" y="1360" as="targetPoint" />
          </mxGeometry>
        </mxCell>
        <mxCell id="zC6uFSW1vvL2UDsvDJ0q-126" value="" style="edgeStyle=entityRelationEdgeStyle;fontSize=14;html=1;endArrow=ERoneToMany;" edge="1" parent="1" source="zC6uFSW1vvL2UDsvDJ0q-123" target="zC6uFSW1vvL2UDsvDJ0q-121">
          <mxGeometry width="100" height="100" relative="1" as="geometry">
            <mxPoint x="858" y="1471" as="sourcePoint" />
            <mxPoint x="958" y="1371" as="targetPoint" />
          </mxGeometry>
        </mxCell>
        <mxCell id="zC6uFSW1vvL2UDsvDJ0q-127" value="初始业务记录" style="whiteSpace=wrap;html=1;align=center;fontFamily=仿宋;fontSize=14;" vertex="1" parent="1">
          <mxGeometry x="1301" y="1292" width="100" height="40" as="geometry" />
        </mxCell>
        <mxCell id="zC6uFSW1vvL2UDsvDJ0q-128" value="" style="group;fontSize=14;" vertex="1" connectable="0" parent="1">
          <mxGeometry x="1010" y="1059" width="259" height="506" as="geometry" />
        </mxCell>
        <mxCell id="zC6uFSW1vvL2UDsvDJ0q-129" value="" style="rounded=0;whiteSpace=wrap;html=1;fontFamily=仿宋;opacity=40;fontSize=14;" vertex="1" parent="zC6uFSW1vvL2UDsvDJ0q-128">
          <mxGeometry width="259" height="506" as="geometry" />
        </mxCell>
        <mxCell id="zC6uFSW1vvL2UDsvDJ0q-130" value="现场取样凭证" style="whiteSpace=wrap;html=1;align=center;fontFamily=仿宋;fontSize=14;" vertex="1" parent="zC6uFSW1vvL2UDsvDJ0q-128">
          <mxGeometry x="15" y="21" width="100" height="40" as="geometry" />
        </mxCell>
        <mxCell id="zC6uFSW1vvL2UDsvDJ0q-131" value="登记保存证据通知书" style="whiteSpace=wrap;html=1;align=center;fontFamily=仿宋;fontSize=14;" vertex="1" parent="zC6uFSW1vvL2UDsvDJ0q-128">
          <mxGeometry x="15" y="72" width="100" height="40" as="geometry" />
        </mxCell>
        <mxCell id="zC6uFSW1vvL2UDsvDJ0q-132" value="听证通知书" style="whiteSpace=wrap;html=1;align=center;fontFamily=仿宋;fontSize=14;" vertex="1" parent="zC6uFSW1vvL2UDsvDJ0q-128">
          <mxGeometry x="15" y="125" width="100" height="40" as="geometry" />
        </mxCell>
        <mxCell id="zC6uFSW1vvL2UDsvDJ0q-133" value="水行政处罚决定书" style="whiteSpace=wrap;html=1;align=center;fontFamily=仿宋;fontSize=14;" vertex="1" parent="zC6uFSW1vvL2UDsvDJ0q-128">
          <mxGeometry x="15" y="177" width="100" height="40" as="geometry" />
        </mxCell>
        <mxCell id="zC6uFSW1vvL2UDsvDJ0q-134" value="水行政处罚告知书" style="whiteSpace=wrap;html=1;align=center;fontFamily=仿宋;fontSize=14;" vertex="1" parent="zC6uFSW1vvL2UDsvDJ0q-128">
          <mxGeometry x="16" y="227" width="100" height="40" as="geometry" />
        </mxCell>
        <mxCell id="zC6uFSW1vvL2UDsvDJ0q-135" value="水行政处罚强制执行申请书" style="whiteSpace=wrap;html=1;align=center;fontFamily=仿宋;fontSize=14;" vertex="1" parent="zC6uFSW1vvL2UDsvDJ0q-128">
          <mxGeometry x="15" y="334" width="100" height="40" as="geometry" />
        </mxCell>
        <mxCell id="zC6uFSW1vvL2UDsvDJ0q-136" value="水行政强制中止恢复执行决定书" style="whiteSpace=wrap;html=1;align=center;fontFamily=仿宋;fontSize=14;" vertex="1" parent="zC6uFSW1vvL2UDsvDJ0q-128">
          <mxGeometry x="15" y="386" width="100" height="40" as="geometry" />
        </mxCell>
        <mxCell id="zC6uFSW1vvL2UDsvDJ0q-137" value="水行政强制代履行决定书" style="whiteSpace=wrap;html=1;align=center;fontFamily=仿宋;fontSize=14;" vertex="1" parent="zC6uFSW1vvL2UDsvDJ0q-128">
          <mxGeometry x="15" y="437" width="100" height="40" as="geometry" />
        </mxCell>
        <mxCell id="zC6uFSW1vvL2UDsvDJ0q-138" value="水行政强制执行中止（终结）决定书" style="whiteSpace=wrap;html=1;align=center;fontFamily=仿宋;fontSize=14;" vertex="1" parent="zC6uFSW1vvL2UDsvDJ0q-128">
          <mxGeometry x="141" y="17" width="100" height="40" as="geometry" />
        </mxCell>
        <mxCell id="zC6uFSW1vvL2UDsvDJ0q-139" value="水行政强制执行催告书" style="whiteSpace=wrap;html=1;align=center;fontFamily=仿宋;fontSize=14;" vertex="1" parent="zC6uFSW1vvL2UDsvDJ0q-128">
          <mxGeometry x="141" y="69" width="100" height="40" as="geometry" />
        </mxCell>
        <mxCell id="zC6uFSW1vvL2UDsvDJ0q-140" value="水行政强制执行公告" style="whiteSpace=wrap;html=1;align=center;fontFamily=仿宋;fontSize=14;" vertex="1" parent="zC6uFSW1vvL2UDsvDJ0q-128">
          <mxGeometry x="140" y="119" width="100" height="40" as="geometry" />
        </mxCell>
        <mxCell id="zC6uFSW1vvL2UDsvDJ0q-141" value="水行政强制执行决定书" style="whiteSpace=wrap;html=1;align=center;fontFamily=仿宋;fontSize=14;" vertex="1" parent="zC6uFSW1vvL2UDsvDJ0q-128">
          <mxGeometry x="141" y="170" width="100" height="40" as="geometry" />
        </mxCell>
        <mxCell id="zC6uFSW1vvL2UDsvDJ0q-142" value="延长扣押期限决定书" style="whiteSpace=wrap;html=1;align=center;fontFamily=仿宋;fontSize=14;" vertex="1" parent="zC6uFSW1vvL2UDsvDJ0q-128">
          <mxGeometry x="141" y="225" width="100" height="40" as="geometry" />
        </mxCell>
        <mxCell id="zC6uFSW1vvL2UDsvDJ0q-143" value="扣押物品清单" style="whiteSpace=wrap;html=1;align=center;fontFamily=仿宋;fontSize=14;" vertex="1" parent="zC6uFSW1vvL2UDsvDJ0q-128">
          <mxGeometry x="139" y="276" width="100" height="40" as="geometry" />
        </mxCell>
        <mxCell id="zC6uFSW1vvL2UDsvDJ0q-144" value="船舶扣押决定书" style="whiteSpace=wrap;html=1;align=center;fontFamily=仿宋;fontSize=14;" vertex="1" parent="zC6uFSW1vvL2UDsvDJ0q-128">
          <mxGeometry x="141" y="337" width="100" height="40" as="geometry" />
        </mxCell>
        <mxCell id="zC6uFSW1vvL2UDsvDJ0q-145" value="解除扣押决定书" style="whiteSpace=wrap;html=1;align=center;fontFamily=仿宋;fontSize=14;" vertex="1" parent="zC6uFSW1vvL2UDsvDJ0q-128">
          <mxGeometry x="140" y="395" width="100" height="40" as="geometry" />
        </mxCell>
        <mxCell id="zC6uFSW1vvL2UDsvDJ0q-146" value="水事违法案件移送通知书" style="whiteSpace=wrap;html=1;align=center;fontFamily=仿宋;fontSize=14;" vertex="1" parent="zC6uFSW1vvL2UDsvDJ0q-128">
          <mxGeometry x="139" y="449" width="100" height="40" as="geometry" />
        </mxCell>
        <mxCell id="zC6uFSW1vvL2UDsvDJ0q-147" value="水事违法案件行政处罚审签表" style="whiteSpace=wrap;html=1;align=center;fontFamily=仿宋;fontSize=14;" vertex="1" parent="zC6uFSW1vvL2UDsvDJ0q-128">
          <mxGeometry x="16" y="281" width="100" height="40" as="geometry" />
        </mxCell>
        <mxCell id="zC6uFSW1vvL2UDsvDJ0q-148" value="" style="edgeStyle=entityRelationEdgeStyle;fontSize=14;html=1;endArrow=ERoneToMany;exitX=0.99;exitY=0.525;exitDx=0;exitDy=0;exitPerimeter=0;" edge="1" parent="1" source="zC6uFSW1vvL2UDsvDJ0q-121" target="zC6uFSW1vvL2UDsvDJ0q-129">
          <mxGeometry width="100" height="100" relative="1" as="geometry">
            <mxPoint x="890" y="1483" as="sourcePoint" />
            <mxPoint x="990" y="1383" as="targetPoint" />
          </mxGeometry>
        </mxCell>
        <mxCell id="zC6uFSW1vvL2UDsvDJ0q-149" value="" style="edgeStyle=entityRelationEdgeStyle;fontSize=14;html=1;endArrow=ERoneToMany;" edge="1" parent="1" source="zC6uFSW1vvL2UDsvDJ0q-127" target="zC6uFSW1vvL2UDsvDJ0q-129">
          <mxGeometry width="100" height="100" relative="1" as="geometry">
            <mxPoint x="1380" y="1536" as="sourcePoint" />
            <mxPoint x="1480" y="1436" as="targetPoint" />
          </mxGeometry>
        </mxCell>
        <mxCell id="zC6uFSW1vvL2UDsvDJ0q-150" value="" style="edgeStyle=entityRelationEdgeStyle;fontSize=14;html=1;endArrow=ERoneToMany;" edge="1" parent="1" source="zC6uFSW1vvL2UDsvDJ0q-127" target="zC6uFSW1vvL2UDsvDJ0q-153">
          <mxGeometry width="100" height="100" relative="1" as="geometry">
            <mxPoint x="1291" y="1508" as="sourcePoint" />
            <mxPoint x="1391" y="1408" as="targetPoint" />
          </mxGeometry>
        </mxCell>
        <mxCell id="zC6uFSW1vvL2UDsvDJ0q-151" value="" style="group" vertex="1" connectable="0" parent="1">
          <mxGeometry x="1443" y="1060" width="270" height="501" as="geometry" />
        </mxCell>
        <mxCell id="zC6uFSW1vvL2UDsvDJ0q-152" value="水事违法案件行政处罚内部审签表" style="whiteSpace=wrap;html=1;align=center;fontFamily=仿宋;" vertex="1" parent="zC6uFSW1vvL2UDsvDJ0q-151">
          <mxGeometry x="22" y="423" width="100" height="40" as="geometry" />
        </mxCell>
        <mxCell id="zC6uFSW1vvL2UDsvDJ0q-153" value="" style="rounded=0;whiteSpace=wrap;html=1;fontFamily=仿宋;opacity=40;fontSize=14;" vertex="1" parent="zC6uFSW1vvL2UDsvDJ0q-151">
          <mxGeometry width="270" height="501" as="geometry" />
        </mxCell>
        <mxCell id="zC6uFSW1vvL2UDsvDJ0q-154" value="初步调查报告" style="whiteSpace=wrap;html=1;align=center;fontFamily=仿宋;fontSize=14;" vertex="1" parent="zC6uFSW1vvL2UDsvDJ0q-151">
          <mxGeometry x="20" y="20" width="100" height="40" as="geometry" />
        </mxCell>
        <mxCell id="zC6uFSW1vvL2UDsvDJ0q-155" value="水事违法案件立案呈批表" style="whiteSpace=wrap;html=1;align=center;fontFamily=仿宋;fontSize=14;" vertex="1" parent="zC6uFSW1vvL2UDsvDJ0q-151">
          <mxGeometry x="23" y="272" width="100" height="40" as="geometry" />
        </mxCell>
        <mxCell id="zC6uFSW1vvL2UDsvDJ0q-156" value="调查审批表" style="whiteSpace=wrap;html=1;align=center;fontFamily=仿宋;fontSize=14;" vertex="1" parent="zC6uFSW1vvL2UDsvDJ0q-151">
          <mxGeometry x="21" y="72" width="100" height="40" as="geometry" />
        </mxCell>
        <mxCell id="zC6uFSW1vvL2UDsvDJ0q-157" value="调查报告" style="whiteSpace=wrap;html=1;align=center;fontFamily=仿宋;fontSize=14;" vertex="1" parent="zC6uFSW1vvL2UDsvDJ0q-151">
          <mxGeometry x="20" y="121" width="100" height="40" as="geometry" />
        </mxCell>
        <mxCell id="zC6uFSW1vvL2UDsvDJ0q-158" value="现场检查（查勘）笔录" style="whiteSpace=wrap;html=1;align=center;fontFamily=仿宋;fontSize=14;" vertex="1" parent="zC6uFSW1vvL2UDsvDJ0q-151">
          <mxGeometry x="21" y="221" width="100" height="40" as="geometry" />
        </mxCell>
        <mxCell id="zC6uFSW1vvL2UDsvDJ0q-159" value="调查询问笔录" style="whiteSpace=wrap;html=1;align=center;fontFamily=仿宋;fontSize=14;" vertex="1" parent="zC6uFSW1vvL2UDsvDJ0q-151">
          <mxGeometry x="21" y="172" width="100" height="40" as="geometry" />
        </mxCell>
        <mxCell id="zC6uFSW1vvL2UDsvDJ0q-160" value="调查报告审批表" style="whiteSpace=wrap;html=1;align=center;fontFamily=仿宋;fontSize=14;" vertex="1" parent="zC6uFSW1vvL2UDsvDJ0q-151">
          <mxGeometry x="23" y="372" width="100" height="40" as="geometry" />
        </mxCell>
        <mxCell id="zC6uFSW1vvL2UDsvDJ0q-161" value="听证笔录" style="whiteSpace=wrap;html=1;align=center;fontFamily=仿宋;fontSize=14;" vertex="1" parent="zC6uFSW1vvL2UDsvDJ0q-151">
          <mxGeometry x="23" y="321" width="100" height="40" as="geometry" />
        </mxCell>
        <mxCell id="zC6uFSW1vvL2UDsvDJ0q-162" value="重大水事违法案件集体讨论记录" style="whiteSpace=wrap;html=1;align=center;fontFamily=仿宋;fontSize=14;" vertex="1" parent="zC6uFSW1vvL2UDsvDJ0q-151">
          <mxGeometry x="146" y="24" width="100" height="40" as="geometry" />
        </mxCell>
        <mxCell id="zC6uFSW1vvL2UDsvDJ0q-163" value="水事违法案件行政强制执行中止（终结）审批表" style="whiteSpace=wrap;html=1;align=center;fontFamily=仿宋;fontSize=14;" vertex="1" parent="zC6uFSW1vvL2UDsvDJ0q-151">
          <mxGeometry x="146" y="77" width="100" height="40" as="geometry" />
        </mxCell>
        <mxCell id="zC6uFSW1vvL2UDsvDJ0q-164" value="水事违法案件行政强制执行审批表" style="whiteSpace=wrap;html=1;align=center;fontFamily=仿宋;fontSize=14;" vertex="1" parent="zC6uFSW1vvL2UDsvDJ0q-151">
          <mxGeometry x="147" y="182" width="100" height="40" as="geometry" />
        </mxCell>
        <mxCell id="zC6uFSW1vvL2UDsvDJ0q-165" value="水行政强制执行中止恢复审批表" style="whiteSpace=wrap;html=1;align=center;fontFamily=仿宋;fontSize=14;" vertex="1" parent="zC6uFSW1vvL2UDsvDJ0q-151">
          <mxGeometry x="146" y="131" width="100" height="40" as="geometry" />
        </mxCell>
        <mxCell id="zC6uFSW1vvL2UDsvDJ0q-166" value="水事违法案件结案审批表" style="whiteSpace=wrap;html=1;align=center;fontFamily=仿宋;fontSize=14;" vertex="1" parent="zC6uFSW1vvL2UDsvDJ0q-151">
          <mxGeometry x="147" y="233" width="100" height="40" as="geometry" />
        </mxCell>
        <mxCell id="zC6uFSW1vvL2UDsvDJ0q-167" value="结案报告" style="whiteSpace=wrap;html=1;align=center;fontFamily=仿宋;fontSize=14;" vertex="1" parent="zC6uFSW1vvL2UDsvDJ0q-151">
          <mxGeometry x="144" y="393" width="100" height="40" as="geometry" />
        </mxCell>
        <mxCell id="zC6uFSW1vvL2UDsvDJ0q-168" value="实施水行政强制措施现场笔录" style="whiteSpace=wrap;html=1;align=center;fontFamily=仿宋;fontSize=14;" vertex="1" parent="zC6uFSW1vvL2UDsvDJ0q-151">
          <mxGeometry x="146" y="285" width="100" height="40" as="geometry" />
        </mxCell>
        <mxCell id="zC6uFSW1vvL2UDsvDJ0q-169" value="水事违法案件行政强制措施审批表" style="whiteSpace=wrap;html=1;align=center;fontFamily=仿宋;fontSize=14;" vertex="1" parent="zC6uFSW1vvL2UDsvDJ0q-151">
          <mxGeometry x="144" y="339" width="100" height="40" as="geometry" />
        </mxCell>
        <mxCell id="zC6uFSW1vvL2UDsvDJ0q-170" value="案件记录" style="whiteSpace=wrap;html=1;align=center;fontFamily=仿宋;fontSize=14;" vertex="1" parent="1">
          <mxGeometry x="1300" y="1392" width="100" height="40" as="geometry" />
        </mxCell>
        <mxCell id="zC6uFSW1vvL2UDsvDJ0q-171" value="" style="edgeStyle=entityRelationEdgeStyle;fontSize=12;html=1;endArrow=ERmandOne;startArrow=ERmandOne;" edge="1" parent="1" source="zC6uFSW1vvL2UDsvDJ0q-122" target="zC6uFSW1vvL2UDsvDJ0q-170">
          <mxGeometry width="100" height="100" relative="1" as="geometry">
            <mxPoint x="1357" y="1644" as="sourcePoint" />
            <mxPoint x="1457" y="1544" as="targetPoint" />
          </mxGeometry>
        </mxCell>
        <mxCell id="zC6uFSW1vvL2UDsvDJ0q-175" value="编写" style="shape=rhombus;perimeter=rhombusPerimeter;whiteSpace=wrap;html=1;align=center;" vertex="1" parent="1">
          <mxGeometry x="728" y="323.91" width="120" height="60" as="geometry" />
        </mxCell>
        <mxCell id="zC6uFSW1vvL2UDsvDJ0q-176" value="" style="endArrow=none;html=1;rounded=0;exitX=1;exitY=0;exitDx=0;exitDy=0;entryX=0.5;entryY=1;entryDx=0;entryDy=0;" edge="1" parent="1" source="zC6uFSW1vvL2UDsvDJ0q-21" target="zC6uFSW1vvL2UDsvDJ0q-175">
          <mxGeometry relative="1" as="geometry">
            <mxPoint x="559" y="702" as="sourcePoint" />
            <mxPoint x="719" y="702" as="targetPoint" />
          </mxGeometry>
        </mxCell>
        <mxCell id="zC6uFSW1vvL2UDsvDJ0q-177" value="1" style="resizable=0;html=1;align=right;verticalAlign=bottom;" connectable="0" vertex="1" parent="zC6uFSW1vvL2UDsvDJ0q-176">
          <mxGeometry x="1" relative="1" as="geometry" />
        </mxCell>
        <mxCell id="zC6uFSW1vvL2UDsvDJ0q-178" value="" style="endArrow=none;html=1;rounded=0;exitX=0.5;exitY=0;exitDx=0;exitDy=0;entryX=0.5;entryY=1;entryDx=0;entryDy=0;" edge="1" parent="1" source="zC6uFSW1vvL2UDsvDJ0q-175" target="zC6uFSW1vvL2UDsvDJ0q-79">
          <mxGeometry relative="1" as="geometry">
            <mxPoint x="935" y="344.91" as="sourcePoint" />
            <mxPoint x="1095" y="344.91" as="targetPoint" />
          </mxGeometry>
        </mxCell>
        <mxCell id="zC6uFSW1vvL2UDsvDJ0q-179" value="1" style="resizable=0;html=1;align=right;verticalAlign=bottom;" connectable="0" vertex="1" parent="zC6uFSW1vvL2UDsvDJ0q-178">
          <mxGeometry x="1" relative="1" as="geometry" />
        </mxCell>
      </root>
    </mxGraphModel>
  </diagram>
</mxfile>
